<svg xmlns="http://www.w3.org/2000/svg" width="137" height="32" viewBox="0 0 137 32">
    <g fill="none" fill-rule="evenodd">
        <path fill="#3E83FF" d="M70.602 15.678v7.319h-3.119v-6.322c0-1.673-.84-2.574-2.267-2.574-1.343 0-2.459.854-2.459 2.597v6.299h-3.13v-6.322c0-1.673-.828-2.574-2.267-2.574-1.344 0-2.46.854-2.46 2.597v6.299h-3.13V11.503h3.047v1.352c.827-1.221 2.087-1.66 3.418-1.66 1.692 0 3.059.735 3.839 1.969.9-1.471 2.423-1.97 3.946-1.97 2.735 0 4.582 1.816 4.582 4.484M75.862 17.244c0 1.862 1.32 3.167 3.082 3.167 1.776 0 3.095-1.305 3.095-3.167 0-1.862-1.32-3.167-3.095-3.167-1.763 0-3.082 1.305-3.082 3.167m9.38 0c0 3.463-2.675 6.049-6.298 6.049-3.61 0-6.273-2.586-6.273-6.05 0-3.462 2.663-6.048 6.273-6.048 3.623 0 6.298 2.586 6.298 6.049M98.356 15.678v7.319h-3.13v-6.322c0-1.673-.828-2.574-2.268-2.574-1.343 0-2.459.854-2.459 2.597v6.299h-3.13V11.503h3.046v1.352c.828-1.221 2.088-1.66 3.419-1.66 2.639 0 4.522 1.815 4.522 4.483M103.637 16.165h5.146c-.288-1.483-1.175-2.302-2.53-2.302-1.488 0-2.34.866-2.616 2.302m8.289 1.067c0 .368-.024.771-.06 1.044h-8.24c.311 1.66 1.51 2.384 2.986 2.384 1.008 0 2.087-.392 2.939-1.103l1.835 1.993c-1.331 1.197-2.987 1.743-4.954 1.743-3.55 0-6.033-2.408-6.033-6.013 0-3.606 2.399-6.085 5.877-6.085 3.347 0 5.65 2.455 5.65 6.037M118.61 13.769c-1.199 0-1.786.415-1.786 1.043 0 .676.84.83 1.895.985l1.031.154c2.531.38 3.923 1.483 3.923 3.44 0 2.372-1.967 3.902-5.338 3.902-1.583 0-3.658-.308-5.17-1.352l1.236-2.349c.983.653 2.219 1.127 3.958 1.127 1.451 0 2.147-.403 2.147-1.08 0-.557-.576-.865-1.931-1.055l-.948-.13c-2.674-.368-4.018-1.53-4.018-3.487 0-2.36 1.847-3.76 4.906-3.76 1.847 0 3.334.332 4.858 1.091l-1.056 2.408c-.923-.44-2.399-.937-3.706-.937M128.22 16.165h5.146c-.288-1.483-1.175-2.302-2.53-2.302-1.488 0-2.34.866-2.616 2.302m8.288 1.067c0 .368-.024.771-.06 1.044h-8.24c.312 1.66 1.512 2.384 2.987 2.384 1.008 0 2.087-.392 2.939-1.103l1.835 1.993c-1.332 1.197-2.987 1.743-4.954 1.743-3.55 0-6.033-2.408-6.033-6.013 0-3.606 2.399-6.085 5.877-6.085 3.347 0 5.65 2.455 5.65 6.037"/>
        <path fill="#28DC8E" d="M37.066 26.805c0 1.264-.983 1.737-1.284 1.852-.302.115-1.352.417-2.21-.52L28.81 22.94l8.256-11.86v15.726zm-10.395-6.2l-4.297-4.69L33.572 3.692c.858-.936 1.908-.634 2.21-.519.301.115 1.284.588 1.284 1.852 0 .417-.124.82-.353 1.154L26.671 20.605zm-5.288 7.596a1.323 1.323 0 0 1-1.1.572c-.447 0-.848-.208-1.101-.572L15.7 23.2l4.583-5.002 4.582 5.002-3.482 5.001zM3.846 6.171A2.057 2.057 0 0 1 3.5 5.015c.005-1.256.984-1.727 1.284-1.842.134-.051.416-.139.763-.139.434 0 .97.138 1.447.658L18.19 15.915l-4.297 4.69L3.846 6.171zm3.147 21.967c-.858.936-1.908.634-2.21.519-.301-.115-1.285-.588-1.285-1.852V11.078l8.257 11.861-4.762 5.199zM36.897.313a5.112 5.112 0 0 0-5.622 1.321L20.283 13.632 9.29 1.634A5.112 5.112 0 0 0 3.668.313C1.87.999.65 2.58.436 4.436a1.506 1.506 0 0 0-.017.117l-.004.067-.003.032a5.352 5.352 0 0 0-.014.37v21.783c0 2.105 1.284 3.955 3.27 4.712a5.192 5.192 0 0 0 1.853.344 5.1 5.1 0 0 0 3.769-1.665l4.271-4.662 3.067 4.405a4.45 4.45 0 0 0 3.655 1.9 4.45 4.45 0 0 0 3.654-1.9l3.067-4.405 4.27 4.662a5.112 5.112 0 0 0 5.623 1.32c1.986-.756 3.27-2.606 3.27-4.71V5.024c0-2.105-1.284-3.955-3.27-4.712z"/>
    </g>
</svg>
